# Blender v2.93.4 OBJ File: 'home_bucket.blend'
# www.blender.org
mtllib home_bucket.mtl
o Cube
v 0.141565 1.424832 -0.727643
v -0.026817 1.424832 -0.744227
v -0.026817 0.000000 -0.531621
v -0.026817 1.300994 -0.718305
v 0.100088 0.000000 -0.519122
v 0.136509 1.300994 -0.702219
v 0.222117 0.000000 -0.482105
v 0.293558 1.300994 -0.654578
v 0.334580 0.000000 -0.421993
v 0.438296 1.300994 -0.577215
v 0.433154 0.000000 -0.341095
v 0.565159 1.300994 -0.473100
v 0.514051 0.000000 -0.242521
v 0.669273 1.300994 -0.346237
v 0.574164 0.000000 -0.130059
v 0.746637 1.300994 -0.201499
v 0.611180 0.000000 -0.008030
v 0.794277 1.300994 -0.044450
v 0.623680 0.000000 0.118876
v 0.810363 1.300994 0.118876
v 0.611180 0.000000 0.245781
v 0.794277 1.300994 0.282201
v 0.574164 0.000000 0.367810
v 0.746637 1.300994 0.439251
v 0.514051 0.000000 0.480272
v 0.669273 1.300994 0.583988
v 0.433154 0.000000 0.578846
v 0.565159 1.300994 0.710851
v 0.334580 0.000000 0.659744
v 0.438296 1.300994 0.814966
v 0.222117 0.000000 0.719856
v 0.293558 1.300994 0.892329
v 0.100088 0.000000 0.756873
v 0.136509 1.300994 0.939970
v -0.026817 0.000000 0.769372
v -0.026817 1.300994 0.956056
v -0.153723 0.000000 0.756873
v -0.190142 1.300994 0.939970
v -0.275751 0.000000 0.719856
v -0.347192 1.300994 0.892329
v -0.388214 0.000000 0.659744
v -0.491930 1.300994 0.814966
v -0.486788 0.000000 0.578846
v -0.618793 1.300994 0.710852
v -0.567685 0.000000 0.480272
v -0.722907 1.300994 0.583988
v -0.627798 0.000000 0.367810
v -0.800270 1.300994 0.439251
v -0.664815 0.000000 0.245781
v -0.847911 1.300994 0.282201
v -0.677314 0.000000 0.118876
v -0.863997 1.300994 0.118876
v -0.664815 0.000000 -0.008030
v -0.847911 1.300994 -0.044450
v -0.627798 0.000000 -0.130059
v -0.800270 1.300994 -0.201500
v -0.567685 0.000000 -0.242521
v -0.722907 1.300994 -0.346237
v -0.486788 0.000000 -0.341095
v -0.618793 1.300994 -0.473100
v -0.388214 0.000000 -0.421993
v -0.491930 1.300994 -0.577215
v -0.275751 0.000000 -0.482105
v -0.347192 1.300994 -0.654578
v -0.153723 0.000000 -0.519122
v -0.190142 1.300994 -0.702219
v 0.303477 1.424832 -0.678527
v 0.452697 1.424832 -0.598768
v 0.583488 1.424832 -0.491430
v 0.690827 1.424832 -0.360639
v 0.770586 1.424832 -0.211419
v 0.819701 1.424832 -0.049507
v 0.836285 1.424832 0.118876
v 0.819701 1.424832 0.287258
v 0.770586 1.424832 0.449170
v 0.690827 1.424832 0.598389
v 0.583488 1.424832 0.729181
v 0.452697 1.424832 0.836519
v 0.303477 1.424832 0.916278
v 0.141565 1.424832 0.965393
v -0.026817 1.424832 0.981978
v -0.195199 1.424832 0.965393
v -0.357111 1.424832 0.916278
v -0.506331 1.424832 0.836519
v -0.637122 1.424832 0.729181
v -0.744460 1.424832 0.598390
v -0.824219 1.424832 0.449171
v -0.873335 1.424832 0.287258
v -0.889919 1.424832 0.118876
v -0.873335 1.424832 -0.049507
v -0.824219 1.424832 -0.211420
v -0.744460 1.424832 -0.360638
v -0.637122 1.424832 -0.491430
v -0.506331 1.424832 -0.598768
v -0.357111 1.424832 -0.678527
v -0.195199 1.424832 -0.727643
v 0.117198 1.424832 -0.605136
v -0.026817 1.424832 -0.619320
v 0.255678 1.424832 -0.563128
v 0.383303 1.424832 -0.494912
v 0.495165 1.424832 -0.403107
v 0.586970 1.424832 -0.291244
v 0.655187 1.424832 -0.163620
v 0.697194 1.424832 -0.025139
v 0.711378 1.424832 0.118876
v 0.697194 1.424832 0.262890
v 0.655187 1.424832 0.401371
v 0.586970 1.424832 0.528995
v 0.495165 1.424832 0.640858
v 0.383303 1.424832 0.732662
v 0.255678 1.424832 0.800879
v 0.117198 1.424832 0.842887
v -0.026817 1.424832 0.857071
v -0.170831 1.424832 0.842887
v -0.309312 1.424832 0.800879
v -0.436936 1.424832 0.732662
v -0.548799 1.424832 0.640859
v -0.640604 1.424832 0.528995
v -0.708820 1.424832 0.401371
v -0.750828 1.424832 0.262890
v -0.765012 1.424832 0.118876
v -0.750828 1.424832 -0.025139
v -0.708820 1.424832 -0.163620
v -0.640604 1.424832 -0.291244
v -0.548799 1.424832 -0.403107
v -0.436936 1.424832 -0.494912
v -0.309312 1.424832 -0.563128
v -0.170831 1.424832 -0.605136
v 0.090534 0.200286 -0.471091
v -0.026817 0.200286 -0.482649
v 0.203376 0.200286 -0.436861
v 0.307372 0.200286 -0.381274
v 0.398524 0.200286 -0.306466
v 0.473332 0.200286 -0.215314
v 0.528919 0.200286 -0.111318
v 0.563149 0.200286 0.001524
v 0.574707 0.200286 0.118876
v 0.563149 0.200286 0.236227
v 0.528919 0.200286 0.349069
v 0.473332 0.200286 0.453065
v 0.398524 0.200286 0.544217
v 0.307372 0.200286 0.619025
v 0.203376 0.200286 0.674612
v 0.090534 0.200286 0.708842
v -0.026817 0.200286 0.720400
v -0.144168 0.200286 0.708842
v -0.257010 0.200286 0.674612
v -0.361006 0.200286 0.619025
v -0.452159 0.200286 0.544218
v -0.526966 0.200286 0.453065
v -0.582553 0.200286 0.349069
v -0.616783 0.200286 0.236227
v -0.628341 0.200286 0.118876
v -0.616783 0.200286 0.001524
v -0.582553 0.200286 -0.111318
v -0.526966 0.200286 -0.215314
v -0.452159 0.200286 -0.306466
v -0.361006 0.200286 -0.381274
v -0.257010 0.200286 -0.436861
v -0.144168 0.200286 -0.471091
vt 0.656250 1.000000
vt 0.687500 1.000000
vt 0.687500 1.000000
vt 0.656250 1.000000
vt 0.093750 1.000000
vt 0.125000 1.000000
vt 0.125000 1.000000
vt 0.093750 1.000000
vt 1.000000 0.500000
vt 1.000000 1.000000
vt 0.968750 1.000000
vt 0.968750 0.500000
vt 0.406250 1.000000
vt 0.437500 1.000000
vt 0.437500 1.000000
vt 0.406250 1.000000
vt 0.000000 1.000000
vt 0.031250 1.000000
vt 0.031250 1.000000
vt 0.000000 1.000000
vt 0.937500 1.000000
vt 0.937500 0.500000
vt 0.062500 1.000000
vt 0.093750 1.000000
vt 0.062500 1.000000
vt 0.968750 1.000000
vt 0.937500 1.000000
vt 0.906250 1.000000
vt 0.906250 0.500000
vt 0.312500 1.000000
vt 0.343750 1.000000
vt 0.343750 1.000000
vt 0.312500 1.000000
vt 0.687500 1.000000
vt 0.718750 1.000000
vt 0.718750 1.000000
vt 0.875000 1.000000
vt 0.875000 0.500000
vt 0.562500 1.000000
vt 0.593750 1.000000
vt 0.593750 1.000000
vt 0.562500 1.000000
vt 0.437500 1.000000
vt 0.468750 1.000000
vt 0.468750 1.000000
vt 0.843750 1.000000
vt 0.843750 0.500000
vt 0.812500 1.000000
vt 0.843750 1.000000
vt 0.843750 1.000000
vt 0.812500 1.000000
vt 0.187500 1.000000
vt 0.218750 1.000000
vt 0.218750 1.000000
vt 0.187500 1.000000
vt 0.812500 1.000000
vt 0.812500 0.500000
vt 0.250000 1.000000
vt 0.250000 1.000000
vt 0.218750 1.000000
vt 0.781250 1.000000
vt 0.781250 1.000000
vt 0.781250 0.500000
vt 0.500000 1.000000
vt 0.500000 1.000000
vt 0.468750 1.000000
vt 0.531250 1.000000
vt 0.562500 1.000000
vt 0.531250 1.000000
vt 0.750000 1.000000
vt 0.750000 0.500000
vt 0.750000 1.000000
vt 0.750000 1.000000
vt 0.718750 1.000000
vt 0.281250 1.000000
vt 0.312500 1.000000
vt 0.281250 1.000000
vt 0.718750 0.500000
vt 1.000000 1.000000
vt 1.000000 1.000000
vt 0.968750 1.000000
vt 0.062500 1.000000
vt 0.687500 0.500000
vt 0.156250 1.000000
vt 0.156250 1.000000
vt 0.125000 1.000000
vt 0.906250 1.000000
vt 0.875000 1.000000
vt 0.656250 1.000000
vt 0.656250 0.500000
vt 0.375000 1.000000
vt 0.375000 1.000000
vt 0.625000 1.000000
vt 0.625000 1.000000
vt 0.625000 0.500000
vt 0.625000 1.000000
vt 0.375000 1.000000
vt 0.406250 1.000000
vt 0.593750 1.000000
vt 0.593750 0.500000
vt 0.906250 1.000000
vt 0.875000 1.000000
vt 0.156250 1.000000
vt 0.562500 0.500000
vt 0.281250 1.000000
vt 0.531250 0.500000
vt 0.531250 1.000000
vt 0.500000 1.000000
vt 0.500000 0.500000
vt 0.781250 1.000000
vt 0.250000 1.000000
vt 0.468750 0.500000
vt 0.031250 1.000000
vt 0.437500 0.500000
vt 0.187500 1.000000
vt 0.406250 0.500000
vt 0.000000 1.000000
vt 0.375000 0.500000
vt 0.343750 1.000000
vt 0.343750 0.500000
vt 0.312500 0.500000
vt 0.937500 1.000000
vt 0.281250 0.500000
vt 0.250000 0.500000
vt 0.218750 0.500000
vt 0.187500 0.500000
vt 0.156250 0.500000
vt 0.125000 0.500000
vt 0.093750 0.500000
vt 0.031250 1.000000
vt 0.000000 1.000000
vt 0.062500 0.500000
vt 0.031250 0.500000
vt 0.000000 0.500000
vt 0.750000 0.490000
vt 0.796822 0.485389
vt 0.841844 0.471731
vt 0.883337 0.449553
vt 0.919706 0.419706
vt 0.949553 0.383337
vt 0.971731 0.341844
vt 0.985389 0.296822
vt 0.990000 0.250000
vt 0.985389 0.203178
vt 0.971731 0.158156
vt 0.949553 0.116663
vt 0.919706 0.080294
vt 0.883337 0.050447
vt 0.841844 0.028269
vt 0.796822 0.014612
vt 0.750000 0.010000
vt 0.703179 0.014612
vt 0.658156 0.028269
vt 0.616663 0.050447
vt 0.580294 0.080294
vt 0.550447 0.116663
vt 0.528269 0.158156
vt 0.514612 0.203178
vt 0.510000 0.250000
vt 0.514612 0.296822
vt 0.528269 0.341844
vt 0.550447 0.383337
vt 0.580294 0.419706
vt 0.616663 0.449553
vt 0.658156 0.471731
vt 0.703179 0.485389
vt 0.296822 0.485389
vt 0.250000 0.490000
vt 0.203179 0.485389
vt 0.158156 0.471731
vt 0.116663 0.449553
vt 0.080294 0.419706
vt 0.050447 0.383337
vt 0.028269 0.341844
vt 0.014612 0.296822
vt 0.010000 0.250000
vt 0.014612 0.203178
vt 0.028269 0.158156
vt 0.050447 0.116663
vt 0.080294 0.080294
vt 0.116663 0.050447
vt 0.158156 0.028269
vt 0.203179 0.014612
vt 0.250000 0.010000
vt 0.296822 0.014612
vt 0.341844 0.028269
vt 0.383337 0.050447
vt 0.419706 0.080294
vt 0.449553 0.116663
vt 0.471731 0.158156
vt 0.485388 0.203178
vt 0.490000 0.250000
vt 0.485388 0.296822
vt 0.471731 0.341844
vt 0.449553 0.383337
vt 0.419706 0.419706
vt 0.383337 0.449553
vt 0.341844 0.471731
vt 0.875000 1.000000
vt 0.843750 1.000000
vt 0.468750 1.000000
vt 0.437500 1.000000
vt 0.062500 1.000000
vt 0.906250 1.000000
vt 0.500000 1.000000
vt 0.093750 1.000000
vt 0.937500 1.000000
vt 0.531250 1.000000
vt 0.125000 1.000000
vt 0.968750 1.000000
vt 0.562500 1.000000
vt 0.156250 1.000000
vt 1.000000 1.000000
vt 0.593750 1.000000
vt 0.187500 1.000000
vt 0.625000 1.000000
vt 0.218750 1.000000
vt 0.656250 1.000000
vt 0.250000 1.000000
vt 0.687500 1.000000
vt 0.281250 1.000000
vt 0.718750 1.000000
vt 0.312500 1.000000
vt 0.750000 1.000000
vt 0.343750 1.000000
vt 0.781250 1.000000
vt 0.375000 1.000000
vt 0.812500 1.000000
vt 0.406250 1.000000
vn 0.0000 1.0000 -0.0000
vn -0.6211 -0.2039 -0.7568
vn 0.0970 -0.1414 -0.9852
vn -0.0960 -0.2039 -0.9743
vn 0.2874 -0.1414 -0.9473
vn 0.2842 -0.2039 -0.9368
vn 0.4667 -0.1414 -0.8731
vn 0.9368 -0.2039 0.2842
vn 0.6280 -0.1414 -0.7652
vn -0.2842 -0.2039 0.9368
vn 0.7652 -0.1414 -0.6280
vn -0.9368 -0.2039 -0.2842
vn 0.8731 -0.1414 -0.4667
vn 0.9368 -0.2039 -0.2842
vn 0.9473 -0.1414 -0.2874
vn 0.2842 -0.2039 0.9368
vn 0.9852 -0.1414 -0.0970
vn -0.9368 -0.2039 0.2842
vn 0.9852 -0.1414 0.0970
vn -0.2842 -0.2039 -0.9368
vn 0.9473 -0.1414 0.2874
vn 0.6211 -0.2039 -0.7568
vn 0.8731 -0.1414 0.4667
vn 0.7568 -0.2039 0.6211
vn 0.7652 -0.1414 0.6280
vn -0.6211 -0.2039 0.7568
vn 0.6280 -0.1414 0.7652
vn -0.7568 -0.2039 -0.6211
vn 0.4667 -0.1414 0.8731
vn 0.9743 -0.2039 0.0960
vn 0.2874 -0.1414 0.9473
vn -0.0960 -0.2039 0.9743
vn 0.0970 -0.1414 0.9852
vn -0.9743 -0.2039 -0.0960
vn -0.0970 -0.1414 0.9852
vn 0.0960 -0.2039 -0.9743
vn -0.2874 -0.1414 0.9473
vn 0.8634 -0.2039 -0.4615
vn -0.4667 -0.1414 0.8731
vn 0.4615 -0.2039 0.8634
vn -0.6280 -0.1414 0.7652
vn -0.8634 -0.2039 0.4615
vn -0.7652 -0.1414 0.6280
vn -0.4615 -0.2039 -0.8634
vn -0.8731 -0.1414 0.4667
vn 0.4615 -0.2039 -0.8634
vn -0.9473 -0.1414 0.2874
vn 0.8634 -0.2039 0.4615
vn -0.9852 -0.1414 0.0970
vn -0.4615 -0.2039 0.8634
vn -0.9852 -0.1414 -0.0970
vn -0.8634 -0.2039 -0.4615
vn -0.9473 -0.1414 -0.2874
vn 0.9743 -0.2039 -0.0960
vn -0.8731 -0.1414 -0.4667
vn 0.0960 -0.2039 0.9743
vn -0.7652 -0.1414 -0.6280
vn -0.9743 -0.2039 0.0960
vn -0.6280 -0.1414 -0.7652
vn 0.0974 0.1104 0.9891
vn 0.7568 -0.2039 -0.6211
vn -0.4667 -0.1414 -0.8731
vn 0.6211 -0.2039 0.7568
vn -0.2874 -0.1414 -0.9473
vn -0.7568 -0.2039 0.6211
vn -0.0970 -0.1414 -0.9852
vn 0.0000 -1.0000 0.0000
vn -0.7683 0.1104 0.6305
vn 0.2885 0.1104 -0.9511
vn 0.2885 0.1104 0.9511
vn -0.6305 0.1104 0.7683
vn 0.0974 0.1104 -0.9891
vn 0.4685 0.1104 0.8765
vn -0.4685 0.1104 0.8765
vn -0.0974 0.1104 -0.9891
vn 0.6305 0.1104 0.7683
vn -0.2885 0.1104 0.9511
vn -0.2885 0.1104 -0.9511
vn 0.7683 0.1104 0.6305
vn -0.0974 0.1104 0.9891
vn -0.4685 0.1104 -0.8765
vn 0.8765 0.1104 0.4685
vn -0.6305 0.1104 -0.7683
vn 0.9511 0.1104 0.2885
vn -0.7683 0.1104 -0.6305
vn 0.9891 0.1104 0.0974
vn -0.8765 0.1104 -0.4685
vn 0.9891 0.1104 -0.0974
vn -0.9511 0.1104 -0.2885
vn 0.9511 0.1104 -0.2885
vn -0.9891 0.1104 -0.0974
vn 0.8765 0.1104 -0.4685
vn -0.9891 0.1104 0.0974
vn 0.7683 0.1104 -0.6305
vn -0.9511 0.1104 0.2885
vn 0.6305 0.1104 -0.7683
vn -0.8765 0.1104 0.4685
vn 0.4685 0.1104 -0.8765
usemtl Material
s off
f 76/1/1 75/2/1 107/3/1 108/4/1
f 62/5/2 60/6/2 93/7/2 94/8/2
f 3/9/3 4/10/3 6/11/3 5/12/3
f 84/13/1 83/14/1 115/15/1 116/16/1
f 4/17/4 66/18/4 96/19/4 2/20/4
f 5/12/5 6/11/5 8/21/5 7/22/5
f 95/23/1 94/8/1 126/24/1 127/25/1
f 8/21/6 6/11/6 1/26/6 67/27/6
f 7/22/7 8/21/7 10/28/7 9/29/7
f 87/30/1 86/31/1 118/32/1 119/33/1
f 24/34/8 22/35/8 74/36/8 75/2/8
f 9/29/9 10/28/9 12/37/9 11/38/9
f 79/39/1 78/40/1 110/41/1 111/42/1
f 40/43/10 38/44/10 82/45/10 83/14/10
f 11/38/11 12/37/11 14/46/11 13/47/11
f 71/48/1 70/49/1 102/50/1 103/51/1
f 56/52/12 54/53/12 90/54/12 91/55/12
f 13/47/13 14/46/13 16/56/13 15/57/13
f 90/54/1 89/58/1 121/59/1 122/60/1
f 18/61/14 16/56/14 71/48/14 72/62/14
f 15/57/15 16/56/15 18/61/15 17/63/15
f 82/45/1 81/64/1 113/65/1 114/66/1
f 34/67/16 32/68/16 79/39/16 80/69/16
f 17/63/17 18/61/17 20/70/17 19/71/17
f 74/36/1 73/72/1 105/73/1 106/74/1
f 50/75/18 48/76/18 87/30/18 88/77/18
f 19/71/19 20/70/19 22/35/19 21/78/19
f 1/26/1 2/79/1 98/80/1 97/81/1
f 66/18/20 64/82/20 95/23/20 96/19/20
f 21/78/21 22/35/21 24/34/21 23/83/21
f 93/7/1 92/84/1 124/85/1 125/86/1
f 12/37/22 10/28/22 68/87/22 69/88/22
f 23/83/23 24/34/23 26/89/23 25/90/23
f 85/91/1 84/13/1 116/16/1 117/92/1
f 28/93/24 26/89/24 76/1/24 77/94/24
f 25/90/25 26/89/25 28/93/25 27/95/25
f 77/94/1 76/1/1 108/4/1 109/96/1
f 44/97/26 42/98/26 84/13/26 85/91/26
f 27/95/27 28/93/27 30/99/27 29/100/27
f 69/88/1 68/87/1 100/101/1 101/102/1
f 60/6/28 58/103/28 92/84/28 93/7/28
f 29/100/29 30/99/29 32/68/29 31/104/29
f 88/77/1 87/30/1 119/33/1 120/105/1
f 22/35/30 20/70/30 73/72/30 74/36/30
f 31/104/31 32/68/31 34/67/31 33/106/31
f 80/69/1 79/39/1 111/42/1 112/107/1
f 38/44/32 36/108/32 81/64/32 82/45/32
f 33/106/33 34/67/33 36/108/33 35/109/33
f 72/62/1 71/48/1 103/51/1 104/110/1
f 54/53/34 52/111/34 89/58/34 90/54/34
f 35/109/35 36/108/35 38/44/35 37/112/35
f 96/19/1 95/23/1 127/25/1 128/113/1
f 6/11/36 4/10/36 2/79/36 1/26/36
f 37/112/37 38/44/37 40/43/37 39/114/37
f 91/55/1 90/54/1 122/60/1 123/115/1
f 16/56/38 14/46/38 70/49/38 71/48/38
f 39/114/39 40/43/39 42/98/39 41/116/39
f 2/20/1 96/19/1 128/113/1 98/117/1
f 32/68/40 30/99/40 78/40/40 79/39/40
f 41/116/41 42/98/41 44/97/41 43/118/41
f 83/14/1 82/45/1 114/66/1 115/15/1
f 48/76/42 46/119/42 86/31/42 87/30/42
f 43/118/43 44/97/43 46/119/43 45/120/43
f 75/2/1 74/36/1 106/74/1 107/3/1
f 64/82/44 62/5/44 94/8/44 95/23/44
f 45/120/45 46/119/45 48/76/45 47/121/45
f 67/27/1 1/26/1 97/81/1 99/122/1
f 10/28/46 8/21/46 67/27/46 68/87/46
f 47/121/47 48/76/47 50/75/47 49/123/47
f 94/8/1 93/7/1 125/86/1 126/24/1
f 26/89/48 24/34/48 75/2/48 76/1/48
f 49/123/49 50/75/49 52/111/49 51/124/49
f 86/31/1 85/91/1 117/92/1 118/32/1
f 42/98/50 40/43/50 83/14/50 84/13/50
f 51/124/51 52/111/51 54/53/51 53/125/51
f 78/40/1 77/94/1 109/96/1 110/41/1
f 58/103/52 56/52/52 91/55/52 92/84/52
f 53/125/53 54/53/53 56/52/53 55/126/53
f 70/49/1 69/88/1 101/102/1 102/50/1
f 20/70/54 18/61/54 72/62/54 73/72/54
f 55/126/55 56/52/55 58/103/55 57/127/55
f 89/58/1 88/77/1 120/105/1 121/59/1
f 36/108/56 34/67/56 80/69/56 81/64/56
f 57/127/57 58/103/57 60/6/57 59/128/57
f 81/64/1 80/69/1 112/107/1 113/65/1
f 52/111/58 50/75/58 88/77/58 89/58/58
f 59/128/59 60/6/59 62/5/59 61/129/59
f 98/117/60 128/113/60 160/130/60 130/131/60
f 14/46/61 12/37/61 69/88/61 70/49/61
f 61/129/62 62/5/62 64/82/62 63/132/62
f 30/99/63 28/93/63 77/94/63 78/40/63
f 73/72/1 72/62/1 104/110/1 105/73/1
f 63/132/64 64/82/64 66/18/64 65/133/64
f 68/87/1 67/27/1 99/122/1 100/101/1
f 46/119/65 44/97/65 85/91/65 86/31/65
f 65/133/66 66/18/66 4/17/66 3/134/66
f 3/135/67 5/136/67 7/137/67 9/138/67 11/139/67 13/140/67 15/141/67 17/142/67 19/143/67 21/144/67 23/145/67 25/146/67 27/147/67 29/148/67 31/149/67 33/150/67 35/151/67 37/152/67 39/153/67 41/154/67 43/155/67 45/156/67 47/157/67 49/158/67 51/159/67 53/160/67 55/161/67 57/162/67 59/163/67 61/164/67 63/165/67 65/166/67
f 92/84/1 91/55/1 123/115/1 124/85/1
f 129/167/1 130/168/1 160/169/1 159/170/1 158/171/1 157/172/1 156/173/1 155/174/1 154/175/1 153/176/1 152/177/1 151/178/1 150/179/1 149/180/1 148/181/1 147/182/1 146/183/1 145/184/1 144/185/1 143/186/1 142/187/1 141/188/1 140/189/1 139/190/1 138/191/1 137/192/1 136/193/1 135/194/1 134/195/1 133/196/1 132/197/1 131/198/1
f 102/50/68 101/102/68 133/199/68 134/200/68
f 115/15/69 114/66/69 146/201/69 147/202/69
f 128/113/70 127/25/70 159/203/70 160/130/70
f 101/102/71 100/101/71 132/204/71 133/199/71
f 114/66/72 113/65/72 145/205/72 146/201/72
f 127/25/73 126/24/73 158/206/73 159/203/73
f 100/101/74 99/122/74 131/207/74 132/204/74
f 113/65/75 112/107/75 144/208/75 145/205/75
f 126/24/76 125/86/76 157/209/76 158/206/76
f 99/122/77 97/81/77 129/210/77 131/207/77
f 112/107/78 111/42/78 143/211/78 144/208/78
f 125/86/79 124/85/79 156/212/79 157/209/79
f 97/81/80 98/80/80 130/213/80 129/210/80
f 111/42/81 110/41/81 142/214/81 143/211/81
f 124/85/82 123/115/82 155/215/82 156/212/82
f 110/41/83 109/96/83 141/216/83 142/214/83
f 123/115/84 122/60/84 154/217/84 155/215/84
f 109/96/85 108/4/85 140/218/85 141/216/85
f 122/60/86 121/59/86 153/219/86 154/217/86
f 108/4/87 107/3/87 139/220/87 140/218/87
f 121/59/88 120/105/88 152/221/88 153/219/88
f 107/3/89 106/74/89 138/222/89 139/220/89
f 120/105/90 119/33/90 151/223/90 152/221/90
f 106/74/91 105/73/91 137/224/91 138/222/91
f 119/33/92 118/32/92 150/225/92 151/223/92
f 105/73/93 104/110/93 136/226/93 137/224/93
f 118/32/94 117/92/94 149/227/94 150/225/94
f 104/110/95 103/51/95 135/228/95 136/226/95
f 117/92/96 116/16/96 148/229/96 149/227/96
f 103/51/97 102/50/97 134/200/97 135/228/97
f 116/16/98 115/15/98 147/202/98 148/229/98
